<svg width="13" height="15" viewBox="0 0 13 15" fill="none" xmlns="http://www.w3.org/2000/svg">
<path d="M6.5 15C9.482 15 12.5 13.9695 12.5 12V3C12.5 1.0305 9.482 0 6.5 0C3.518 0 0.5 1.0305 0.5 3V12C0.5 13.9695 3.518 15 6.5 15ZM6.5 13.5C3.7085 13.5 2 12.5288 2 12V11.049C3.15575 11.6775 4.83275 12 6.5 12C8.16725 12 9.84425 11.6775 11 11.049V12C11 12.5288 9.2915 13.5 6.5 13.5ZM6.5 1.5C9.2915 1.5 11 2.47125 11 3C11 3.52875 9.2915 4.5 6.5 4.5C3.7085 4.5 2 3.52875 2 3C2 2.47125 3.7085 1.5 6.5 1.5ZM2 5.049C3.15575 5.6775 4.83275 6 6.5 6C8.16725 6 9.84425 5.6775 11 5.049V6C11 6.52875 9.2915 7.5 6.5 7.5C3.7085 7.5 2 6.52875 2 6V5.049ZM2 8.049C3.15575 8.6775 4.83275 9 6.5 9C8.16725 9 9.84425 8.6775 11 8.049V9C11 9.52875 9.2915 10.5 6.5 10.5C3.7085 10.5 2 9.52875 2 9V8.049Z" fill="#F5F1F3"/>
</svg>
