<svg width="397" height="153" viewBox="0 0 397 153" fill="none" xmlns="http://www.w3.org/2000/svg">
<path fill-rule="evenodd" clip-rule="evenodd" d="M397 70.2916V78.3323C392.757 78.8422 388.558 79.7506 384.475 81.0456C370.565 85.4556 360.865 94.2356 351.735 105.256C343.505 115.186 333.095 124.566 319.175 121.706C308.005 119.406 302.625 108.446 306.515 98.0156C308.126 93.7139 310.647 89.8803 313.158 86.061C313.718 85.2101 314.277 84.36 314.825 83.5056C314.915 83.3652 315.006 83.2238 315.098 83.0816C317.887 78.7467 321.213 73.5799 320.535 68.2256C319.605 60.9156 311.585 57.1556 304.985 56.6956C298.947 56.2748 293.051 57.7546 287.182 59.2278C286.579 59.3792 285.976 59.5305 285.373 59.6797C286.76 73.0815 283.489 87.1982 275.805 98.1256C267.585 109.816 254.875 118.206 240.875 121.146C238.493 121.644 236.137 121.946 233.787 122.103C235.38 130.916 232.988 140.104 225.755 146.306C217.425 153.436 204.115 155.066 196.145 146.486C189.615 139.446 187.965 127.326 194.685 119.846C201.532 112.22 211.52 113.074 221.06 113.889C221.154 113.897 221.248 113.905 221.341 113.913C218.255 109.804 214.065 106.442 209.595 104.676C196.577 99.526 183.898 103.208 171.24 106.884C167.183 108.062 163.128 109.24 159.065 110.126C155.291 110.948 151.234 111.51 147.155 111.616C146.912 111.901 146.665 112.181 146.415 112.456C135.665 124.286 119.005 127.256 103.995 129.666H104.025C98.9749 130.476 96.8249 122.766 101.895 121.956C109.445 120.746 117.055 119.516 124.315 117.016C128.157 115.693 132.393 113.495 136.204 110.636C130.217 109.288 124.732 106.454 120.685 101.436C113.565 92.6056 112.325 77.8256 122.535 70.7056C131.755 64.2756 144.795 68.6756 151.195 77.0356C157.177 84.8576 156.535 94.764 152.581 103.206C152.653 103.196 152.724 103.186 152.795 103.176C158.774 102.305 164.566 100.6 170.344 98.8998C179.69 96.1495 189 93.4099 199.005 94.2256C211.965 95.2856 224.705 101.446 230.835 113.416C230.993 113.724 231.146 114.034 231.293 114.347C245.09 113.786 258.481 106.984 267.225 96.3156C275.131 86.6853 278.687 73.7232 277.558 61.3263C265.049 63.2298 249.935 61.0558 245.265 47.4356C241.335 35.9856 249.705 23.5256 262.435 26.4256C274.307 29.1246 281.118 40.598 283.979 51.8125C284.232 51.751 284.484 51.6894 284.736 51.6279C285.416 51.4618 286.092 51.2966 286.765 51.1356C299.365 48.1156 314.575 46.3656 324.035 57.3556C331.485 66.0156 328.385 76.7356 323.025 85.5056C322.395 86.5359 321.561 87.7443 320.642 89.075C315.756 96.1526 308.48 106.691 316.855 112.306C328.825 120.326 340.925 105.866 347.555 97.8056C355.605 88.0156 364.785 80.3156 376.595 75.4456C383.104 72.7589 390.002 71.0358 397 70.2916ZM276.192 53.4934C274.513 47.0078 271.59 40.8518 266.015 36.8356C261.355 33.4756 253.415 32.3556 252.285 39.7856C251.225 46.7356 256.985 51.9556 263.205 53.4356C267.494 54.4586 271.867 54.2186 276.192 53.4934ZM143.542 103.417C147.446 98.1669 149.302 91.904 146.785 85.2356C142.895 74.9156 124.015 70.7556 123.065 85.0756C122.252 97.3546 132.98 102.493 143.542 103.417ZM225.594 122.15C223.551 122.059 221.496 121.906 219.415 121.726C219.13 121.701 218.839 121.675 218.542 121.648C212.23 121.086 203.371 120.296 199.665 126.476C196.915 131.056 198.565 137.596 202.175 141.226C207.135 146.216 215.025 144.696 220.075 140.646C226.427 135.551 227.545 128.64 225.594 122.15Z" fill="#2556B8" fill-opacity="0.25"/>
<path d="M74.6964 98.1413C65.6149 98.6878 60.7749 110.137 60.7749 110.137L82.7631 116.981C84.5846 117.553 86.4582 116.252 86.5623 114.353L87.8113 90.4389C87.8113 90.4389 83.3616 97.6469 74.6964 98.1673V98.1413Z" fill="#2556B8" fill-opacity="0.25"/>
<path d="M56.3766 103.606C56.3766 103.606 61.2166 92.1569 70.2981 91.6104C78.9894 91.09 83.413 83.882 83.413 83.882L43.9643 25.6717C43.9643 25.6717 38.6038 31.9689 31.3698 36.887C23.4072 42.2735 16.3033 44.4333 16.3033 44.4333L56.4026 103.606" fill="#2556B8" fill-opacity="0.25"/>
<path d="M16.954 1.52321L3.86515 10.3966C-0.168193 13.1288 -1.20906 18.5934 1.52321 22.6267L11.8798 37.9014C11.8798 37.9014 19.8684 35.1691 26.9463 30.3552C33.5038 25.9055 39.5408 19.1398 39.5408 19.1398L29.1842 3.86515C26.4519 -0.168194 20.9874 -1.20906 16.954 1.52321Z" fill="#2556B8" fill-opacity="0.25"/>
</svg>
