<svg width="26" height="12" viewBox="0 0 26 12" fill="none" xmlns="http://www.w3.org/2000/svg">
<path d="M0.719971 4.31982V7.19982" stroke="white" stroke-width="1.44"/>
<path d="M25.2 7.19982V4.31982" stroke="white" stroke-width="1.44"/>
<path d="M25.2 4.32C25.2 4.6013 25.0296 4.98388 24.4559 5.43604C23.8902 5.88181 23.0271 6.31474 21.8964 6.69165C19.6425 7.44295 16.483 7.92 12.96 7.92C9.43705 7.92 6.2775 7.44295 4.02358 6.69165C2.89286 6.31474 2.02976 5.88181 1.46412 5.43604C0.890371 4.98388 0.72 4.6013 0.72 4.32C0.72 4.0387 0.890371 3.65612 1.46412 3.20396C2.02976 2.75819 2.89286 2.32526 4.02358 1.94835C6.2775 1.19705 9.43705 0.72 12.96 0.72C16.483 0.72 19.6425 1.19705 21.8964 1.94835C23.0271 2.32526 23.8902 2.75819 24.4559 3.20396C25.0296 3.65612 25.2 4.0387 25.2 4.32Z" stroke="white" stroke-width="1.44"/>
<path d="M1 5.5332C0.355847 6.04613 0 6.60927 0 7.20012C0 9.58599 5.80239 11.5201 12.96 11.5201C20.1176 11.5201 25.92 9.58599 25.92 7.20012C25.92 6.6342 25.5936 6.0937 25 5.5984V6.00023H22.9114C23.3755 6.21728 23.7412 6.43754 24.0102 6.64957C24.2437 6.8336 24.3684 6.98329 24.4295 7.08286C24.4587 7.13035 24.4707 7.16205 24.4756 7.1781C24.48 7.19261 24.48 7.19874 24.48 7.20002C24.48 7.20131 24.48 7.20762 24.4756 7.22214C24.4707 7.23818 24.4587 7.26989 24.4295 7.31738C24.3684 7.41694 24.2437 7.56664 24.0102 7.75066C23.5348 8.12537 22.7575 8.52578 21.6687 8.88872C19.5062 9.60956 16.4271 10.0801 12.96 10.0801C9.4929 10.0801 6.41379 9.60956 4.25126 8.88872C3.16247 8.52578 2.38524 8.12537 1.90978 7.75066C1.67627 7.56664 1.55163 7.41694 1.49051 7.31738C1.46135 7.26989 1.44929 7.23818 1.4444 7.22214C1.43998 7.20762 1.44 7.20149 1.44 7.20021C1.44 7.19893 1.43998 7.19261 1.4444 7.1781C1.44929 7.16205 1.46135 7.13035 1.49051 7.08286C1.55163 6.98329 1.67627 6.8336 1.90978 6.64957C2.17882 6.43754 2.54449 6.21728 3.00856 6.00023H1V5.5332Z" fill="white"/>
</svg>
