<svg width="26" height="22" viewBox="0 0 26 22" fill="none" xmlns="http://www.w3.org/2000/svg">
<path d="M0.719971 4.83984V7.71984" stroke="white" stroke-width="1.44"/>
<path d="M0.719971 11.3198V14.1998" stroke="white" stroke-width="1.44"/>
<path d="M0.719971 8V10.88" stroke="white" stroke-width="1.44"/>
<path d="M0.719971 14.4805V17.3605" stroke="white" stroke-width="1.44"/>
<path d="M25.2 7.71984V4.83984" stroke="white" stroke-width="1.44"/>
<path d="M25.2 14.1998V11.3198" stroke="white" stroke-width="1.44"/>
<path d="M25.2 10.88V8" stroke="white" stroke-width="1.44"/>
<path d="M25.2 17.3605V14.4805" stroke="white" stroke-width="1.44"/>
<path d="M25.2 4.84002C25.2 5.12132 25.0296 5.5039 24.4559 5.95606C23.8902 6.40183 23.0271 6.83476 21.8964 7.21167C19.6425 7.96297 16.483 8.44002 12.96 8.44002C9.43705 8.44002 6.2775 7.96297 4.02358 7.21167C2.89286 6.83476 2.02976 6.40183 1.46412 5.95606C0.890371 5.5039 0.72 5.12132 0.72 4.84002C0.72 4.55872 0.890371 4.17614 1.46412 3.72398C2.02976 3.27821 2.89286 2.84528 4.02358 2.46837C6.2775 1.71707 9.43705 1.24002 12.96 1.24002C16.483 1.24002 19.6425 1.71707 21.8964 2.46837C23.0271 2.84528 23.8902 3.27821 24.4559 3.72398C25.0296 4.17614 25.2 4.55872 25.2 4.84002Z" stroke="white" stroke-width="1.44"/>
<path d="M1 6.05322C0.355847 6.56615 0 7.12929 0 7.72014C0 10.106 5.80239 12.0401 12.96 12.0401C20.1176 12.0401 25.92 10.106 25.92 7.72014C25.92 7.15422 25.5936 6.61372 25 6.11842V6.52025H22.9114C23.3755 6.7373 23.7412 6.95756 24.0102 7.16959C24.2437 7.35362 24.3684 7.50331 24.4295 7.60287C24.4587 7.65037 24.4707 7.68207 24.4756 7.69812C24.48 7.71263 24.48 7.71876 24.48 7.72004C24.48 7.72133 24.48 7.72764 24.4756 7.74216C24.4707 7.7582 24.4587 7.78991 24.4295 7.8374C24.3684 7.93696 24.2437 8.08666 24.0102 8.27068C23.5348 8.64539 22.7575 9.0458 21.6687 9.40873C19.5062 10.1296 16.4271 10.6001 12.96 10.6001C9.4929 10.6001 6.41379 10.1296 4.25126 9.40873C3.16247 9.0458 2.38524 8.64539 1.90978 8.27068C1.67627 8.08666 1.55163 7.93696 1.49051 7.8374C1.46135 7.78991 1.44929 7.7582 1.4444 7.74216C1.43998 7.72764 1.44 7.72151 1.44 7.72023C1.44 7.71895 1.43998 7.71263 1.4444 7.69812C1.44929 7.68207 1.46135 7.65037 1.49051 7.60287C1.55163 7.50331 1.67627 7.35362 1.90978 7.16959C2.17882 6.95756 2.54449 6.7373 3.00856 6.52025H1V6.05322Z" fill="white"/>
<path d="M1 12.5332C0.355847 13.0461 0 13.6093 0 14.2001C0 16.586 5.80239 18.5201 12.96 18.5201C20.1176 18.5201 25.92 16.586 25.92 14.2001C25.92 13.6342 25.5936 13.0937 25 12.5984V13.0002H22.9114C23.3755 13.2173 23.7412 13.4375 24.0102 13.6496C24.2437 13.8336 24.3684 13.9833 24.4295 14.0829C24.4587 14.1303 24.4707 14.1621 24.4756 14.1781C24.48 14.1926 24.48 14.1987 24.48 14.2C24.48 14.2013 24.48 14.2076 24.4756 14.2221C24.4707 14.2382 24.4587 14.2699 24.4295 14.3174C24.3684 14.4169 24.2437 14.5666 24.0102 14.7507C23.5348 15.1254 22.7575 15.5258 21.6687 15.8887C19.5062 16.6096 16.4271 17.0801 12.96 17.0801C9.4929 17.0801 6.41379 16.6096 4.25126 15.8887C3.16247 15.5258 2.38524 15.1254 1.90978 14.7507C1.67627 14.5666 1.55163 14.4169 1.49051 14.3174C1.46135 14.2699 1.44929 14.2382 1.4444 14.2221C1.43998 14.2076 1.44 14.2015 1.44 14.2002C1.44 14.1989 1.43998 14.1926 1.4444 14.1781C1.44929 14.1621 1.46135 14.1303 1.49051 14.0829C1.55163 13.9833 1.67627 13.8336 1.90978 13.6496C2.17882 13.4375 2.54449 13.2173 3.00856 13.0002H1V12.5332Z" fill="white"/>
<path d="M1 9.21338C0.355847 9.7263 0 10.2894 0 10.8803C0 13.2662 5.80239 15.2003 12.96 15.2003C20.1176 15.2003 25.92 13.2662 25.92 10.8803C25.92 10.3144 25.5936 9.77388 25 9.27858V9.68041H22.9114C23.3755 9.89746 23.7412 10.1177 24.0102 10.3297C24.2437 10.5138 24.3684 10.6635 24.4295 10.763C24.4587 10.8105 24.4707 10.8422 24.4756 10.8583C24.48 10.8728 24.48 10.8789 24.48 10.8802C24.48 10.8815 24.48 10.8878 24.4756 10.9023C24.4707 10.9184 24.4587 10.9501 24.4295 10.9976C24.3684 11.0971 24.2437 11.2468 24.0102 11.4308C23.5348 11.8055 22.7575 12.206 21.6687 12.5689C19.5062 13.2897 16.4271 13.7603 12.96 13.7603C9.4929 13.7603 6.41379 13.2897 4.25126 12.5689C3.16247 12.206 2.38524 11.8055 1.90978 11.4308C1.67627 11.2468 1.55163 11.0971 1.49051 10.9976C1.46135 10.9501 1.44929 10.9184 1.4444 10.9023C1.43998 10.8878 1.44 10.8817 1.44 10.8804C1.44 10.8791 1.43998 10.8728 1.4444 10.8583C1.44929 10.8422 1.46135 10.8105 1.49051 10.763C1.55163 10.6635 1.67627 10.5138 1.90978 10.3297C2.17882 10.1177 2.54449 9.89746 3.00856 9.68041H1V9.21338Z" fill="white"/>
<path d="M1 15.6934C0.355847 16.2063 0 16.7694 0 17.3603C0 19.7461 5.80239 21.6803 12.96 21.6803C20.1176 21.6803 25.92 19.7461 25.92 17.3603C25.92 16.7944 25.5936 16.2539 25 15.7586V16.1604H22.9114C23.3755 16.3774 23.7412 16.5977 24.0102 16.8097C24.2437 16.9938 24.3684 17.1434 24.4295 17.243C24.4587 17.2905 24.4707 17.3222 24.4756 17.3383C24.48 17.3528 24.48 17.3589 24.48 17.3602C24.48 17.3615 24.48 17.3678 24.4756 17.3823C24.4707 17.3983 24.4587 17.43 24.4295 17.4775C24.3684 17.5771 24.2437 17.7268 24.0102 17.9108C23.5348 18.2855 22.7575 18.6859 21.6687 19.0489C19.5062 19.7697 16.4271 20.2403 12.96 20.2403C9.4929 20.2403 6.41379 19.7697 4.25126 19.0489C3.16247 18.6859 2.38524 18.2855 1.90978 17.9108C1.67627 17.7268 1.55163 17.5771 1.49051 17.4775C1.46135 17.43 1.44929 17.3983 1.4444 17.3823C1.43998 17.3678 1.44 17.3616 1.44 17.3604C1.44 17.3591 1.43998 17.3528 1.4444 17.3383C1.44929 17.3222 1.46135 17.2905 1.49051 17.243C1.55163 17.1434 1.67627 16.9938 1.90978 16.8097C2.17882 16.5977 2.54449 16.3774 3.00856 16.1604H1V15.6934Z" fill="white"/>
</svg>
