<svg width="36" height="28" viewBox="0 0 36 28" fill="none" xmlns="http://www.w3.org/2000/svg">
<path d="M10.72 10.3198V13.1998" stroke="white" stroke-width="1.44"/>
<path d="M10.72 16.7998V19.6798" stroke="white" stroke-width="1.44"/>
<path d="M10.72 13.48V16.36" stroke="white" stroke-width="1.44"/>
<path d="M10.72 19.96V22.84" stroke="white" stroke-width="1.44"/>
<path d="M35.2 13.1998V10.3198" stroke="white" stroke-width="1.44"/>
<path d="M35.2 19.6798V16.7998" stroke="white" stroke-width="1.44"/>
<path d="M35.2 16.36V13.48" stroke="white" stroke-width="1.44"/>
<path d="M35.2 22.84V19.96" stroke="white" stroke-width="1.44"/>
<path d="M35.2 10.32C35.2 10.6013 35.0296 10.9839 34.4559 11.436C33.8902 11.8818 33.0271 12.3147 31.8964 12.6916C29.6425 13.443 26.483 13.92 22.96 13.92C19.437 13.92 16.2775 13.443 14.0236 12.6916C12.8929 12.3147 12.0298 11.8818 11.4641 11.436C10.8904 10.9839 10.72 10.6013 10.72 10.32C10.72 10.0387 10.8904 9.65612 11.4641 9.20396C12.0298 8.75819 12.8929 8.32526 14.0236 7.94835C16.2775 7.19705 19.437 6.72 22.96 6.72C26.483 6.72 29.6425 7.19705 31.8964 7.94835C33.0271 8.32526 33.8902 8.75819 34.4559 9.20396C35.0296 9.65612 35.2 10.0387 35.2 10.32Z" stroke="white" stroke-width="1.44"/>
<path d="M11 11.5327C10.3558 12.0456 10 12.6088 10 13.1996C10 15.5855 15.8024 17.5196 22.96 17.5196C30.1176 17.5196 35.92 15.5855 35.92 13.1996C35.92 12.6337 35.5936 12.0932 35 11.5979V11.9997H32.9114C33.3755 12.2168 33.7412 12.4371 34.0102 12.6491C34.2437 12.8331 34.3684 12.9828 34.4295 13.0824C34.4587 13.1299 34.4707 13.1616 34.4756 13.1776C34.48 13.1921 34.48 13.1983 34.48 13.1995C34.48 13.2008 34.48 13.2071 34.4756 13.2216C34.4707 13.2377 34.4587 13.2694 34.4295 13.3169C34.3684 13.4165 34.2437 13.5661 34.0102 13.7502C33.5348 14.1249 32.7575 14.5253 31.6687 14.8882C29.5062 15.6091 26.4271 16.0796 22.96 16.0796C19.4929 16.0796 16.4138 15.6091 14.2513 14.8882C13.1625 14.5253 12.3852 14.1249 11.9098 13.7502C11.6763 13.5661 11.5516 13.4165 11.4905 13.3169C11.4614 13.2694 11.4493 13.2377 11.4444 13.2216C11.44 13.2071 11.44 13.201 11.44 13.1997C11.44 13.1984 11.44 13.1921 11.4444 13.1776C11.4493 13.1616 11.4614 13.1299 11.4905 13.0824C11.5516 12.9828 11.6763 12.8331 11.9098 12.6491C12.1788 12.4371 12.5445 12.2168 13.0086 11.9997H11V11.5327Z" fill="white"/>
<path d="M11 18.0127C10.3558 18.5256 10 19.0888 10 19.6796C10 22.0655 15.8024 23.9996 22.96 23.9996C30.1176 23.9996 35.92 22.0655 35.92 19.6796C35.92 19.1137 35.5936 18.5732 35 18.0779V18.4797H32.9114C33.3755 18.6968 33.7412 18.917 34.0102 19.1291C34.2437 19.3131 34.3684 19.4628 34.4295 19.5623C34.4587 19.6098 34.4707 19.6415 34.4756 19.6576C34.48 19.6721 34.48 19.6782 34.48 19.6795C34.48 19.6808 34.48 19.6871 34.4756 19.7016C34.4707 19.7177 34.4587 19.7494 34.4295 19.7969C34.3684 19.8964 34.2437 20.0461 34.0102 20.2302C33.5348 20.6049 32.7575 21.0053 31.6687 21.3682C29.5062 22.0891 26.4271 22.5596 22.96 22.5596C19.4929 22.5596 16.4138 22.0891 14.2513 21.3682C13.1625 21.0053 12.3852 20.6049 11.9098 20.2302C11.6763 20.0461 11.5516 19.8964 11.4905 19.7969C11.4614 19.7494 11.4493 19.7177 11.4444 19.7016C11.44 19.6871 11.44 19.681 11.44 19.6797C11.44 19.6784 11.44 19.6721 11.4444 19.6576C11.4493 19.6415 11.4614 19.6098 11.4905 19.5623C11.5516 19.4628 11.6763 19.3131 11.9098 19.1291C12.1788 18.917 12.5445 18.6968 13.0086 18.4797H11V18.0127Z" fill="white"/>
<path d="M11 14.6929C10.3558 15.2058 10 15.7689 10 16.3598C10 18.7457 15.8024 20.6798 22.96 20.6798C30.1176 20.6798 35.92 18.7457 35.92 16.3598C35.92 15.7939 35.5936 15.2534 35 14.7581V15.1599H32.9114C33.3755 15.3769 33.7412 15.5972 34.0102 15.8092C34.2437 15.9933 34.3684 16.143 34.4295 16.2425C34.4587 16.29 34.4707 16.3217 34.4756 16.3378C34.48 16.3523 34.48 16.3584 34.48 16.3597C34.48 16.361 34.48 16.3673 34.4756 16.3818C34.4707 16.3979 34.4587 16.4296 34.4295 16.477C34.3684 16.5766 34.2437 16.7263 34.0102 16.9103C33.5348 17.285 32.7575 17.6855 31.6687 18.0484C29.5062 18.7692 26.4271 19.2398 22.96 19.2398C19.4929 19.2398 16.4138 18.7692 14.2513 18.0484C13.1625 17.6855 12.3852 17.285 11.9098 16.9103C11.6763 16.7263 11.5516 16.5766 11.4905 16.477C11.4614 16.4296 11.4493 16.3979 11.4444 16.3818C11.44 16.3673 11.44 16.3612 11.44 16.3599C11.44 16.3586 11.44 16.3523 11.4444 16.3378C11.4493 16.3217 11.4614 16.29 11.4905 16.2425C11.5516 16.143 11.6763 15.9933 11.9098 15.8092C12.1788 15.5972 12.5445 15.3769 13.0086 15.1599H11V14.6929Z" fill="white"/>
<path d="M11 21.1733C10.3558 21.6863 10 22.2494 10 22.8403C10 25.2261 15.8024 27.1603 22.96 27.1603C30.1176 27.1603 35.92 25.2261 35.92 22.8403C35.92 22.2743 35.5936 21.7338 35 21.2385V21.6404H32.9114C33.3755 21.8574 33.7412 22.0777 34.0102 22.2897C34.2437 22.4737 34.3684 22.6234 34.4295 22.723C34.4587 22.7705 34.4707 22.8022 34.4756 22.8182C34.48 22.8327 34.48 22.8389 34.48 22.8402C34.48 22.8414 34.48 22.8478 34.4756 22.8623C34.4707 22.8783 34.4587 22.91 34.4295 22.9575C34.3684 23.0571 34.2437 23.2068 34.0102 23.3908C33.5348 23.7655 32.7575 24.1659 31.6687 24.5289C29.5062 25.2497 26.4271 25.7203 22.96 25.7203C19.4929 25.7203 16.4138 25.2497 14.2513 24.5289C13.1625 24.1659 12.3852 23.7655 11.9098 23.3908C11.6763 23.2068 11.5516 23.0571 11.4905 22.9575C11.4614 22.91 11.4493 22.8783 11.4444 22.8623C11.44 22.8478 11.44 22.8416 11.44 22.8403C11.44 22.8391 11.44 22.8328 11.4444 22.8182C11.4493 22.8022 11.4614 22.7705 11.4905 22.723C11.5516 22.6234 11.6763 22.4737 11.9098 22.2897C12.1788 22.0777 12.5445 21.8574 13.0086 21.6404H11V21.1733Z" fill="white"/>
<path fill-rule="evenodd" clip-rule="evenodd" d="M25.92 6.82423V5.012L25.92 4.99969C25.92 2.61382 20.1176 0.679688 12.96 0.679688C5.8026 0.679688 0.000285278 2.61372 0 4.99951L2.93255e-05 7.87958C2.93255e-05 7.97371 0.00906258 8.06715 0.0268559 8.15979H0L2.93255e-05 11.0399C2.93255e-05 11.1883 0.022494 11.335 0.0663519 11.4796H0L2.93255e-05 14.3597C2.93255e-05 14.4538 0.00906258 14.5473 0.0268559 14.6399H0L2.93255e-05 17.52C2.93255e-05 19.6837 4.77244 21.476 11 21.7909V20.349C8.33869 20.209 5.99651 19.7903 4.25129 19.2086C3.1625 18.8456 2.38527 18.4452 1.90981 18.0705C1.6763 17.8865 1.55166 17.7368 1.49054 17.6372C1.46138 17.5897 1.44932 17.558 1.44443 17.542C1.44001 17.5275 1.44003 17.5213 1.44003 17.5201C1.44003 17.5188 1.44001 17.5125 1.44443 17.4979C1.44932 17.4819 1.46138 17.4502 1.49054 17.4027C1.55166 17.3031 1.6763 17.1534 1.90981 16.9694C1.99505 16.9022 2.08999 16.8342 2.19468 16.7658C4.17565 17.7486 7.33596 18.4453 11 18.6306V17.1887C8.33869 17.0487 5.99651 16.63 4.25129 16.0483C3.1625 15.6853 2.38527 15.2849 1.90981 14.9102C1.6763 14.7262 1.55166 14.5765 1.49054 14.4769C1.46138 14.4294 1.44932 14.3977 1.44443 14.3817C1.44001 14.3672 1.44003 14.3611 1.44003 14.3598C1.44003 14.3585 1.44001 14.3522 1.44443 14.3377C1.44932 14.3216 1.46138 14.2899 1.49054 14.2424C1.55166 14.1429 1.6763 13.9932 1.90981 13.8091C2.03233 13.7126 2.17489 13.6143 2.33766 13.5154C4.32589 14.4616 7.42289 15.1299 11 15.3108V13.8689C8.33869 13.7289 5.99651 13.3102 4.25129 12.7285C3.1625 12.3655 2.38527 11.9651 1.90981 11.5904C1.6763 11.4064 1.55166 11.2567 1.49054 11.1571C1.46138 11.1096 1.44932 11.0779 1.44443 11.0619C1.44001 11.0474 1.44003 11.0412 1.44003 11.0399C1.44003 11.0387 1.44001 11.0324 1.44443 11.0178C1.44932 11.0018 1.46138 10.9701 1.49054 10.9226C1.55166 10.823 1.6763 10.6733 1.90981 10.4893C1.99505 10.4221 2.08999 10.3541 2.19468 10.2857C4.17565 11.2685 7.33596 11.9652 11 12.1505V10.7086C8.33869 10.5686 5.99651 10.1499 4.25129 9.56817C3.1625 9.20524 2.38527 8.80482 1.90981 8.43012C1.6763 8.2461 1.55166 8.0964 1.49054 7.99684C1.46138 7.94935 1.44932 7.91764 1.44443 7.9016C1.44001 7.88708 1.44003 7.88095 1.44003 7.87967C1.44003 7.87839 1.44001 7.87207 1.44443 7.85756C1.44932 7.84151 1.46138 7.80981 1.49054 7.76231C1.55166 7.66275 1.6763 7.51306 1.90981 7.32903C1.92746 7.31512 1.94553 7.30118 1.96402 7.2872C4.0727 8.41109 7.68907 9.18846 11.869 9.3046L13.5 7.99979L13.8947 7.86821C13.5866 7.87581 13.2749 7.87969 12.96 7.87969C9.49293 7.87969 6.41382 7.40913 4.25129 6.68828C3.1625 6.32535 2.38527 5.92494 1.90981 5.55023C1.6763 5.36621 1.55166 5.21651 1.49054 5.11695C1.46138 5.06946 1.44932 5.03775 1.44443 5.02171C1.44001 5.00719 1.44003 5.00087 1.44003 4.99959C1.44003 4.99831 1.44001 4.99218 1.44443 4.97767C1.44932 4.96162 1.46138 4.92992 1.49054 4.88243C1.55166 4.78286 1.6763 4.63317 1.90981 4.44914C2.38527 4.07444 3.1625 3.67402 4.25129 3.31109C6.41382 2.59025 9.49293 2.11969 12.96 2.11969C16.4271 2.11969 19.5062 2.59025 21.6688 3.31109C22.7576 3.67402 23.5348 4.07444 24.0102 4.44914C24.2438 4.63317 24.3684 4.78286 24.4295 4.88243C24.4587 4.92992 24.4707 4.96162 24.4756 4.97767C24.48 4.99189 24.48 4.99806 24.48 4.99951V5.00148C24.4798 5.00434 24.479 5.01054 24.4756 5.02171C24.4707 5.03775 24.4587 5.06946 24.4295 5.11695C24.3684 5.21651 24.2438 5.36621 24.0102 5.55023C23.6158 5.86108 23.0137 6.18963 22.1983 6.49979H23L25.92 6.82423ZM1.66518 13.1598C1.58767 13.114 1.51259 13.0677 1.44 13.0209V13.1598H1.66518Z" fill="white"/>
</svg>
