<svg width="75" height="71" viewBox="0 0 75 71" fill="none" xmlns="http://www.w3.org/2000/svg">
<path d="M0 33C0 18.6406 11.6406 7 26 7H50C63.8071 7 75 18.1929 75 32V41C75 57.5685 61.5685 71 45 71H30C13.4315 71 0 57.5685 0 41V33Z" fill="#333333"/>
<rect width="75" height="64" rx="32" fill="url(#paint0_linear_5969_7161)"/>
<path d="M27.8887 32.5391V33.8379H35.2422C35.099 34.1309 34.8841 34.4466 34.5977 34.7852C34.3177 35.1172 33.9954 35.4362 33.6309 35.7422C33.2728 36.0417 32.9017 36.2988 32.5176 36.5137C32.14 36.722 31.7786 36.8522 31.4336 36.9043C31.1406 36.9434 30.916 37.0475 30.7598 37.2168C30.6035 37.3861 30.5254 37.6074 30.5254 37.8809C30.5254 38.1348 30.6198 38.3626 30.8086 38.5645C30.9974 38.7598 31.2611 38.8314 31.5996 38.7793C31.9902 38.7207 32.4167 38.5742 32.8789 38.3398C33.3411 38.099 33.7936 37.7962 34.2363 37.4316C34.679 37.0605 35.0762 36.6406 35.4277 36.1719C35.7858 35.7031 36.0495 35.2116 36.2188 34.6973H36.2969V42.0605H37.7031V34.6973H37.7715C37.9408 35.2116 38.2012 35.7031 38.5527 36.1719C38.9108 36.6406 39.3112 37.0605 39.7539 37.4316C40.2031 37.7962 40.6589 38.099 41.1211 38.3398C41.5833 38.5742 42.013 38.7207 42.4102 38.7793C42.7422 38.8314 43.0026 38.7598 43.1914 38.5645C43.3802 38.3626 43.4746 38.1348 43.4746 37.8809C43.4746 37.6074 43.3965 37.3861 43.2402 37.2168C43.084 37.041 42.8561 36.9368 42.5566 36.9043C42.2181 36.8587 41.8568 36.7318 41.4727 36.5234C41.0951 36.3086 40.724 36.0482 40.3594 35.7422C40.0013 35.4362 39.679 35.1172 39.3926 34.7852C39.1126 34.4466 38.8978 34.1309 38.748 33.8379H46.1016V32.5391H41.3359C41.7396 32.3438 42.0944 32.0996 42.4004 31.8066C42.7064 31.5137 42.944 31.1849 43.1133 30.8203C43.2891 30.4557 43.377 30.0586 43.377 29.6289C43.377 29.1341 43.263 28.6882 43.0352 28.291C42.8073 27.8874 42.4948 27.5716 42.0977 27.3438C41.707 27.1159 41.2546 27.002 40.7402 27.002C40.3236 27.002 39.9232 27.0833 39.5391 27.2461C39.1615 27.4089 38.8164 27.6432 38.5039 27.9492C38.1914 28.2487 37.9245 28.61 37.7031 29.0332V23.8379H36.2969V29.0332C36.0755 28.61 35.8086 28.2487 35.4961 27.9492C35.1836 27.6432 34.8353 27.4089 34.4512 27.2461C34.0736 27.0833 33.6732 27.002 33.25 27.002C32.7487 27.002 32.2995 27.1159 31.9023 27.3438C31.5052 27.5716 31.1927 27.8874 30.9648 28.291C30.737 28.6882 30.623 29.1341 30.623 29.6289C30.623 30.0586 30.7077 30.4557 30.877 30.8203C31.0462 31.1849 31.2839 31.5137 31.5898 31.8066C31.8958 32.0996 32.2539 32.3438 32.6641 32.5391H27.8887ZM35.8184 32.4219C35.3301 32.4219 34.8711 32.347 34.4414 32.1973C34.0117 32.041 33.6276 31.8392 33.2891 31.5918C32.957 31.3379 32.6966 31.0579 32.5078 30.752C32.319 30.4395 32.2246 30.127 32.2246 29.8145C32.2246 29.4564 32.3288 29.1699 32.5371 28.9551C32.7454 28.7402 33.0254 28.6328 33.377 28.6328C33.748 28.6328 34.0964 28.7272 34.4219 28.916C34.7539 29.1048 35.0436 29.362 35.291 29.6875C35.5449 30.013 35.7435 30.3874 35.8867 30.8105C36.0299 31.2272 36.1016 31.6667 36.1016 32.1289V32.4219H35.8184ZM38.1719 32.4219H37.8887V32.1289C37.8887 31.6667 37.9603 31.2272 38.1035 30.8105C38.2467 30.3874 38.4453 30.013 38.6992 29.6875C38.9596 29.362 39.2526 29.1048 39.5781 28.916C39.9036 28.7272 40.2487 28.6328 40.6133 28.6328C40.9714 28.6328 41.2546 28.7402 41.4629 28.9551C41.6712 29.1699 41.7754 29.4564 41.7754 29.8145C41.7754 30.127 41.6777 30.4395 41.4824 30.752C41.2936 31.0579 41.0332 31.3379 40.7012 31.5918C40.3691 31.8392 39.985 32.041 39.5488 32.1973C39.1191 32.347 38.6602 32.4219 38.1719 32.4219ZM44.9199 25.0391C45.4147 25.5339 45.7337 26.1296 45.877 26.8262C46.0267 27.5163 46.1016 28.3073 46.1016 29.1992V36.6895C46.1016 37.5879 46.0267 38.3822 45.877 39.0723C45.7337 39.7624 45.4147 40.3581 44.9199 40.8594C44.4121 41.3607 43.8099 41.6862 43.1133 41.8359C42.4167 41.9857 41.6257 42.0605 40.7402 42.0605H33.25C32.3581 42.0605 31.5638 41.9857 30.8672 41.8359C30.1771 41.6862 29.5814 41.3607 29.0801 40.8594C28.5723 40.3581 28.2467 39.7624 28.1035 39.0723C27.9603 38.3822 27.8887 37.5879 27.8887 36.6895V29.1895C27.8887 28.304 27.9603 27.5163 28.1035 26.8262C28.2533 26.1361 28.5788 25.5404 29.0801 25.0391C29.5814 24.5378 30.1771 24.2122 30.8672 24.0625C31.5638 23.9128 32.3516 23.8379 33.2305 23.8379H40.7402C41.6257 23.8379 42.4167 23.9128 43.1133 24.0625C43.8099 24.2122 44.4121 24.5378 44.9199 25.0391Z" fill="black"/>
<defs>
<linearGradient id="paint0_linear_5969_7161" x1="8.81697" y1="57.5413" x2="65.4657" y2="60.7495" gradientUnits="userSpaceOnUse">
<stop stop-color="#B8B8B8"/>
<stop offset="1" stop-color="#919191"/>
</linearGradient>
</defs>
</svg>
